#N canvas 76 242 450 300 10;
#X obj 109 60 readsf~;
#X msg 323 72 \; pd dsp 1;
#X msg 73 26 1;
#X obj 182 181 dac~;
#X obj 179 157 *~ 0.3;
#X obj 24 68 metro 50;
#X obj 23 42 tgl 15 0 empty empty empty 17 7 0 10 -262144 -1 -1 0 1
;
#X obj 109 88 specFlatness~;
#X obj 110 115 print;
#X msg 109 37 open /home/krex/workspace/MightyKnob/preset0.wav;
#X msg 10 147 power_spectrum 1;
#X connect 0 0 4 0;
#X connect 0 0 7 0;
#X connect 2 0 0 0;
#X connect 4 0 3 0;
#X connect 5 0 7 0;
#X connect 6 0 5 0;
#X connect 7 0 8 0;
#X connect 9 0 0 0;
#X connect 10 0 7 0;
